# xmcd
#
# Track frame offsets: 
#        150
#        24010
#        44807
#        61420
#        85792
#        100830
#        130095
#        145985
#        167107
#        191640
#        205797
#
# Disc length: 2956 seconds
#
# Revision: 3
# Processed by: cddbd v1.5.2PL0 Copyright (c) Steve Scherf et al.
# Submitted via: ExactAudioCopy v0.99pb4
#
DISCID=940b8a0b
DTITLE=Dramatics - A Dramatic Christmas (The Very Best Christmas Of Al
DTITLE=l)
DYEAR=1997
DGENRE=Soul
TTITLE0=The Very Best Christmas
TTITLE1=The Days Before Christmas
TTITLE2=This Christmas
TTITLE3=The Christmas Song
TTITLE4=It's Christmas Time
TTITLE5=A Holiday Thought
TTITLE6=Santa Claus Is Coming To Town
TTITLE7=All I Want For Christmas Is My Baby
TTITLE8=Here Comes Christmas Love
TTITLE9=Christmas Just Ain't Christmas (Without The One You Love)
TTITLE10=The Golden Horn
EXTD=Label: Fantasy Records\nFCD-9680-2
EXTT0=
EXTT1=
EXTT2=
EXTT3=
EXTT4=
EXTT5=
EXTT6=
EXTT7=
EXTT8=
EXTT9=
EXTT10=
PLAYORDER=
